:FULLY-SPECIFIED
:FORCE-ALL-JOINTS-BE-3DOF
:DEGREES
324
root 9.6816 16.4058 9.34493 6.7069 8.83199 3.06848
lfemur 27.7583 5.62918 -19.4423
ltibia -1.16291 0 0
lfoot 1.00443 -4.00169 0
ltoes -15.2187 0 0
rfemur -43.8002 0.890567 16.0947
rtibia 41.5262 0 0
rfoot -6.38505 -0.55546 0
rtoes -19.6892 0 0
lowerback -7.79208 -4.81736 -5.24306
upperback -1.28536 -6.06247 2.27873
thorax 3.78704 -3.09978 4.61991
lowerneck -19.0059 -4.68109 -13.0299
upperneck 20.8735 -5.96426 13.3131
head 10.6655 -2.26887 6.14736
lclavicle 3.73268e-14 -1.55873e-14 0
lhumerus -24.0287 -36.1998 100.748
lradius 38.1935 0 0
lwrist 7.39989 0 0
lhand -7.37532 -25.0655 0
lfingers 7.12502 0 0
lthumb 18.5089 4.0614 0
rclavicle 3.73268e-14 -1.55873e-14 0
rhumerus -50.5847 5.58228 -82.6602
rradius 30.1645 0 0
rwrist -15.3368 0 0
rhand -28.2279 -24.6553 0
rfingers 7.12502 0 0
rthumb -1.60605 -54.6293 0
325
root 9.67111 16.393 9.50936 6.74221 8.95212 3.00777
lfemur 27.8755 5.651 -19.2126
ltibia -1.10191 0 0
lfoot 1.31805 -4.05683 0
ltoes -15.3064 0 0
rfemur -43.6296 0.962172 16.202
rtibia 41.2811 0 0
rfoot -6.11977 -0.251477 0
rtoes -19.5662 0 0
lowerback -7.82932 -4.79803 -5.21088
upperback -1.31234 -6.03716 2.28446
thorax 3.77833 -3.08621 4.60749
lowerneck -18.9509 -4.71742 -13.0637
upperneck 20.8277 -6.01943 13.3583
head 10.6489 -2.29297 6.1595
lclavicle 3.6983e-14 -1.63397e-14 0
lhumerus -24.5097 -36.3955 101.026
lradius 38.3537 0 0
lwrist 7.49982 0 0
lhand -7.23056 -25.0479 0
lfingers 7.12502 0 0
lthumb 18.6484 4.0692 0
rclavicle 3.6983e-14 -1.63397e-14 0
rhumerus -50.5287 5.63824 -82.6786
rradius 30.0493 0 0
rwrist -15.2304 0 0
rhand -28.2173 -24.7221 0
rfingers 7.12502 0 0
rthumb -1.5958 -54.6962 0
326
root 9.66062 16.3802 9.6738 6.7728 9.05796 2.94426
lfemur 27.8992 5.66996 -19.0004
ltibia -0.958662 0 0
lfoot 1.57941 -4.08395 0
ltoes -15.3662 0 0
rfemur -43.4396 1.03556 16.319
rtibia 41.0426 0 0
rfoot -5.9037 0.0279564 0
rtoes -19.4523 0 0
lowerback -7.8599 -4.77441 -5.17429
upperback -1.33575 -6.00669 2.2904
thorax 3.76874 -3.07007 4.59371
lowerneck -18.903 -4.75271 -13.0933
upperneck 20.7881 -6.07274 13.398
head 10.6353 -2.3163 6.1694
lclavicle 3.66118e-14 -1.70677e-14 0
lhumerus -24.9773 -36.5523 101.276
lradius 38.4881 0 0
lwrist 7.60196 0 0
lhand -7.11028 -25.0276 0
lfingers 7.12502 0 0
lthumb 18.7643 4.08149 0
rclavicle 3.66118e-14 -1.70677e-14 0
rhumerus -50.4525 5.70804 -82.6971
rradius 29.9643 0 0
rwrist -15.1438 0 0
rhand -28.2117 -24.7826 0
rfingers 7.12502 0 0
rthumb -1.59045 -54.7567 0
327
root 9.65013 16.3673 9.83823 6.79834 9.14885 2.87798
lfemur 27.8254 5.68582 -18.8067
ltibia -0.729627 0 0
lfoot 1.78546 -4.08163 0
ltoes -15.3965 0 0
rfemur -43.2305 1.11072 16.4463
rtibia 40.8117 0 0
rfoot -5.74011 0.281012 0
rtoes -19.3482 0 0
lowerback -7.88343 -4.74642 -5.13318
upperback -1.35534 -5.97097 2.29657
thorax 3.75828 -3.05131 4.57855
lowerneck -18.8626 -4.78685 -13.1187
upperneck 20.7552 -6.12398 13.4319
head 10.625 -2.33875 6.17692
lclavicle 3.62132e-14 -1.77691e-14 0
lhumerus -25.4297 -36.6682 101.498
lradius 38.5954 0 0
lwrist 7.70655 0 0
lhand -7.01598 -25.0044 0
lfingers 7.12502 0 0
lthumb 18.8552 4.09848 0
rclavicle 3.62132e-14 -1.77691e-14 0
rhumerus -50.355 5.79228 -82.7157
rradius 29.9111 0 0
rwrist -15.0779 0 0
rhand -28.2115 -24.8365 0
rfingers 7.12502 0 0
rthumb -1.59025 -54.8106 0
328
root 9.63964 16.3545 10.0027 6.81845 9.22412 2.80894
lfemur 27.6502 5.69831 -18.6329
ltibia -0.411256 0 0
lfoot 1.93312 -4.04846 0
ltoes -15.3962 0 0
rfemur -43.0024 1.18764 16.5839
rtibia 40.5891 0 0
rfoot -5.63228 0.50586 0
rtoes -19.2546 0 0
lowerback -7.89954 -4.71397 -5.08744
upperback -1.37084 -5.92992 2.30298
thorax 3.747 -3.02989 4.56201
lowerneck -18.8302 -4.81969 -13.1393
upperneck 20.7294 -6.17294 13.4596
head 10.6181 -2.36026 6.1819
lclavicle 3.57873e-14 -1.84417e-14 0
lhumerus -25.8651 -36.7415 101.689
lradius 38.6743 0 0
lwrist 7.81386 0 0
lhand -6.94918 -24.9782 0
lfingers 7.12502 0 0
lthumb 18.9196 4.12033 0
rclavicle 3.57873e-14 -1.84417e-14 0
rhumerus -50.2355 5.89159 -82.7342
rradius 29.8913 0 0
rwrist -15.0338 0 0
rhand -28.2169 -24.8834 0
rfingers 7.12502 0 0
rthumb -1.59546 -54.8573 0
329
root 9.62915 16.3417 10.1671 6.83279 9.28311 2.73717
lfemur 27.3698 5.70719 -18.4801
ltibia 6.36111e-15 0 0
lfoot 2.01933 -3.98304 0
ltoes -15.3638 0 0
rfemur -42.7555 1.26631 16.7323
rtibia 40.3758 0 0
rfoot -5.58349 0.700675 0
rtoes -19.1723 0 0
lowerback -7.90783 -4.67699 -5.03697
upperback -1.382 -5.88346 2.30964
thorax 3.7349 -3.00579 4.54406
lowerneck -18.8063 -4.85112 -13.1551
upperneck 20.7113 -6.21944 13.4807
head 10.6149 -2.38074 6.18421
lclavicle 3.5334e-14 -1.90833e-14 0
lhumerus -26.2818 -36.7705 101.848
lradius 38.7235 0 0
lwrist 7.9241 0 0
lhand -6.91139 -24.9491 0
lfingers 7.12502 0 0
lthumb 18.956 4.14723 0
rclavicle 3.5334e-14 -1.90833e-14 0
rhumerus -50.0928 6.00658 -82.7526
rradius 29.9064 0 0
rwrist -15.0127 0 0
rhand -28.2282 -24.9229 0
rfingers 7.12502 0 0
rthumb -1.60635 -54.8966 0
